<svg width="261" height="260" viewBox="0 0 261 260" fill="none" xmlns="http://www.w3.org/2000/svg">
<g filter="url(#filter0_d_301_8803)">
<rect x="40.9329" y="36" width="180" height="180" rx="32" fill="#1D1F23"/>
<rect x="41.4329" y="36.5" width="179" height="179" rx="31.5" stroke="black"/>
</g>
<path d="M175.082 105.197C175.081 103.532 174.725 102.061 174.005 100.799C173.298 99.5566 172.239 98.5159 170.818 97.6932C159.089 90.9305 147.35 84.1885 135.625 77.419C132.464 75.5941 129.399 75.661 126.262 77.512C121.594 80.2648 98.2215 93.6553 91.2568 97.6894C88.3886 99.3501 86.9929 101.891 86.9922 105.194C86.9877 118.794 86.9922 132.394 86.9877 145.994C86.9877 147.623 87.3293 149.065 88.0177 150.309C88.7254 151.588 89.7994 152.657 91.253 153.499C98.218 157.533 121.593 170.922 126.261 173.676C129.399 175.528 132.464 175.594 135.626 173.769C147.351 166.999 159.091 160.257 170.822 153.494C172.275 152.653 173.349 151.583 174.057 150.305C174.744 149.062 175.087 147.619 175.087 145.99C175.087 145.99 175.087 118.797 175.082 105.197Z" fill="#A179DC"/>
<path d="M131.172 125.461L88.0177 150.309C88.7254 151.588 89.7994 152.657 91.253 153.499C98.218 157.533 121.593 170.922 126.261 173.676C129.399 175.528 132.464 175.594 135.626 173.769C147.351 166.999 159.091 160.257 170.822 153.494C172.275 152.653 173.349 151.583 174.057 150.305L131.172 125.461Z" fill="#280068"/>
<path d="M175.082 105.197C175.082 103.532 174.726 102.061 174.005 100.798L131.172 125.462L174.057 150.305C174.745 149.062 175.086 147.619 175.087 145.99C175.087 145.99 175.087 118.797 175.082 105.197Z" fill="#390091"/>
<path d="M156.58 116.173V120.817H161.224V116.173H163.546V120.817H168.191V123.14H163.546V127.784H168.191V130.106H163.546V134.75H161.224V130.106H156.58V134.75H154.257V130.106H149.613V127.784H154.257V123.14H149.613V120.817H154.257V116.173H156.58ZM161.224 123.139H156.58V127.784H161.224V123.139Z" fill="white"/>
<path d="M131.267 92.8477C143.381 92.8477 153.957 99.4267 159.622 109.206L159.567 109.112L145.314 117.318C142.506 112.564 137.358 109.355 131.452 109.289L131.266 109.288C122.261 109.288 114.96 116.589 114.96 125.594C114.957 128.432 115.699 131.222 117.111 133.684C119.922 138.591 125.206 141.9 131.267 141.9C137.365 141.9 142.679 138.549 145.476 133.589L145.408 133.708L159.639 141.953C154.036 151.649 143.605 158.208 131.631 158.339L131.267 158.341C119.114 158.341 108.508 151.721 102.857 141.89C100.098 137.091 98.52 131.527 98.52 125.594C98.52 107.509 113.181 92.8474 131.266 92.8474L131.267 92.8477Z" fill="white"/>
<defs>
<filter id="filter0_d_301_8803" x="0.932861" y="0" width="260" height="260" filterUnits="userSpaceOnUse" color-interpolation-filters="sRGB">
<feFlood flood-opacity="0" result="BackgroundImageFix"/>
<feColorMatrix in="SourceAlpha" type="matrix" values="0 0 0 0 0 0 0 0 0 0 0 0 0 0 0 0 0 0 127 0" result="hardAlpha"/>
<feOffset dy="4"/>
<feGaussianBlur stdDeviation="20"/>
<feComposite in2="hardAlpha" operator="out"/>
<feColorMatrix type="matrix" values="0 0 0 0 0.0367917 0 0 0 0 0.0348958 0 0 0 0 0.0484375 0 0 0 0.1 0"/>
<feBlend mode="normal" in2="BackgroundImageFix" result="effect1_dropShadow_301_8803"/>
<feBlend mode="normal" in="SourceGraphic" in2="effect1_dropShadow_301_8803" result="shape"/>
</filter>
</defs>
</svg>
