<svg width="260" height="260" viewBox="0 0 260 260" fill="none" xmlns="http://www.w3.org/2000/svg">
<g filter="url(#filter0_d_610_7)">
<rect x="40" y="36" width="180" height="180" rx="32" fill="#1D1F23"/>
<rect x="40.5" y="36.5" width="179" height="179" rx="31.5" stroke="black"/>
</g>
<path d="M154.213 169.756C153.841 169.953 153.873 170.016 154.229 169.834C154.345 169.787 154.441 169.722 154.526 169.644C154.526 169.578 154.526 169.578 154.213 169.756ZM154.963 169.35C154.785 169.497 154.785 169.497 154.998 169.4C155.11 169.334 155.21 169.272 155.21 169.253C155.21 169.169 155.16 169.187 154.963 169.35ZM155.451 169.056C155.273 169.203 155.273 169.203 155.485 169.106C155.601 169.04 155.698 168.972 155.698 168.956C155.698 168.878 155.648 168.894 155.451 169.056ZM155.945 168.765C155.766 168.912 155.766 168.912 155.973 168.812C156.088 168.75 156.185 168.684 156.185 168.665C156.185 168.587 156.135 168.603 155.945 168.765ZM156.61 168.325C156.269 168.553 156.151 168.7 156.463 168.537C156.673 168.409 157.029 168.128 156.966 168.128C156.832 168.178 156.719 168.262 156.607 168.325H156.61ZM126.727 76.023C126.499 76.0386 125.814 76.1011 125.214 76.1511C111.002 77.4386 97.7057 85.0888 89.2778 96.8734C84.6186 103.333 81.5937 110.836 80.4531 118.714C80.05 121.465 80 122.277 80 126.005C80 129.73 80.05 130.53 80.4531 133.28C83.1749 152.065 96.537 167.834 114.649 173.678C117.908 174.719 121.324 175.437 125.214 175.878C126.727 176.041 133.267 176.041 134.78 175.878C141.504 175.128 147.182 173.469 152.801 170.603C153.663 170.166 153.826 170.05 153.71 169.953C150.96 166.325 148.26 162.693 145.557 159.031L137.567 148.24L127.558 133.412C124.22 128.449 120.871 123.499 117.468 118.586C117.433 118.586 117.389 125.177 117.371 133.215C117.336 147.293 117.336 147.865 117.158 148.19C116.98 148.581 116.686 148.906 116.296 149.087C115.986 149.234 115.708 149.265 114.23 149.265H112.54L112.099 148.99C111.824 148.812 111.596 148.565 111.449 148.274L111.237 147.834L111.252 128.237L111.287 108.639L111.596 108.249C111.793 108.008 112.036 107.811 112.311 107.664C112.721 107.467 112.883 107.436 114.574 107.436C116.558 107.436 116.886 107.514 117.408 108.086C121.458 114.124 125.495 120.177 129.467 126.249C135.964 136.099 144.832 149.54 149.192 156.134L157.119 168.131L157.51 167.872C161.319 165.331 164.785 162.306 167.775 158.856C174.075 151.643 178.163 142.771 179.547 133.302C179.95 130.552 180 129.737 180 126.011C180 122.283 179.95 121.486 179.547 118.736C176.825 99.9516 163.463 84.1825 145.351 78.3355C141.964 77.2636 138.479 76.5324 134.951 76.1573C134.005 76.0605 127.542 75.9448 126.73 76.0292L126.727 76.023ZM147.185 106.264C147.657 106.489 148.013 106.914 148.176 107.402C148.26 107.664 148.276 113.099 148.26 125.34L148.226 142.915L145.135 138.165L142.026 133.412V120.652C142.026 112.38 142.061 107.742 142.104 107.514C142.251 106.992 142.607 106.555 143.082 106.28C143.47 106.083 143.62 106.067 145.167 106.067C146.614 106.067 146.86 106.083 147.185 106.264Z" fill="#61DAFB"/>
<defs>
<filter id="filter0_d_610_7" x="0" y="0" width="260" height="260" filterUnits="userSpaceOnUse" color-interpolation-filters="sRGB">
<feFlood flood-opacity="0" result="BackgroundImageFix"/>
<feColorMatrix in="SourceAlpha" type="matrix" values="0 0 0 0 0 0 0 0 0 0 0 0 0 0 0 0 0 0 127 0" result="hardAlpha"/>
<feOffset dy="4"/>
<feGaussianBlur stdDeviation="20"/>
<feComposite in2="hardAlpha" operator="out"/>
<feColorMatrix type="matrix" values="0 0 0 0 0.0367917 0 0 0 0 0.0348958 0 0 0 0 0.0484375 0 0 0 0.1 0"/>
<feBlend mode="normal" in2="BackgroundImageFix" result="effect1_dropShadow_610_7"/>
<feBlend mode="normal" in="SourceGraphic" in2="effect1_dropShadow_610_7" result="shape"/>
</filter>
</defs>
</svg>
